<svg xmlns:xlink="http://www.w3.org/1999/xlink" xmlns="http://www.w3.org/2000/svg" viewBox="58.663212435233156 236.016 494.6735751295337 308.88" style="max-height: 500px" width="494.6735751295337" height="308.88"><clipPath id="a"><path transform="matrix(1 0 0 -1 0 792)" d="m0 792h612v-792h-612z"/></clipPath><g clip-path="url(#a)"><path transform="matrix(1 0 0 -1 82.7715 483.5547)" fill="#87c540" d="m0 0s179.934 114.592 446.457-.523c0 0-242.662 76.219-446.457.523"/><path transform="matrix(1 0 0 -1 0 792)" fill="#ed1c24" d="m333.632 367.307h-57.681v90.186h57.681z"/><path transform="matrix(1 0 0 -1 0 792)" fill="#ed1c24" d="m333.632 317.809h-57.681v20.155h57.681z"/><path transform="matrix(1 0 0 -1 0 792)" fill="#ed1c24" d="m372.121 366.841h-135.409v50.53203h135.409z"/><g fill="#231f20"><path transform="matrix(1 0 0 -1 92.396 505.1631)" d="m0 0c1.311-.765 3.277-1.427 5.345-1.427 2.584 0 4.026 1.231 4.026 3.066 0 1.696-1.114 2.693-3.932 3.727-3.633 1.332-5.963 3.306-5.963 6.539 0 3.662 3.014 6.465 7.798 6.465 2.395 0 4.158-.531 5.308-1.136l-.983-3.297c-.786.429-2.323 1.062-4.391 1.062-2.555 0-3.669-1.397-3.669-2.693 0-1.741 1.281-2.535 4.223-3.706 3.837-1.464 5.708-3.43 5.708-6.663 0-3.597-2.694-6.736-8.387-6.736-2.331 0-4.755.67-5.971 1.399z"/><path transform="matrix(1 0 0 -1 0 792)" d="m109.347 298.604h4.063v-16.23h-4.063zm4.296 4.536c0-1.231-.889-2.2-2.301-2.2-1.34 0-2.228.969-2.228 2.2 0 1.266.917 2.235 2.264 2.235 1.376 0 2.228-.969 2.265-2.235"/><path transform="matrix(1 0 0 -1 122.3657 488.7588)" d="m0 0v-4.638h3.83v-3.065h-3.83v-7.165c0-1.966.524-3 2.061-3 .691 0 1.215.102 1.572.204l.066-3.138c-.59-.233-1.638-.401-2.912-.401-1.479 0-2.724.503-3.481 1.333-.845.939-1.238 2.402-1.238 4.536v7.631h-2.301v3.065h2.301v3.67z"/><path transform="matrix(1 0 0 -1 137.7075 501.6973)" d="m0 0c-2.847.073-5.57-.561-5.57-3.029 0-1.602 1.019-2.33 2.293-2.33 1.61 0 2.789 1.063 3.146 2.228.094.299.131.634.131.903zm.524-7.93-.262 1.799h-.095c-.99-1.266-2.657-2.162-4.718-2.162-3.219 0-5.017 2.366-5.017 4.827 0 4.1 3.575 6.167 9.473 6.138v.263c0 1.07-.429 2.832-3.247 2.832-1.573 0-3.211-.496-4.296-1.195l-.787 2.665c1.18.736 3.248 1.435 5.767 1.435 5.112 0 6.59-3.306 6.59-6.837v-5.861c0-1.471.065-2.906.225-3.904z"/><path transform="matrix(1 0 0 -1 149.9473 500.5254)" d="m0 0h.058c.393.634.859 1.333 1.281 1.9l3.867 5.229h4.849l-5.898-6.634 6.75-9.597h-4.951l-4.587 7.165-1.369-1.63v-5.535h-4.034v23.665h4.034z"/><path transform="matrix(1 0 0 -1 176.895 504.7627)" d="m0 0c0-1.93.065-3.531.131-4.864h-3.539l-.196 2.468h-.066c-.691-1.165-2.264-2.832-5.111-2.832-2.92 0-5.571 1.762-5.571 7.063v9.531h4.035v-8.832c0-2.694.844-4.434 2.978-4.434 1.609 0 2.657 1.171 3.079 2.206.132.364.234.794.234 1.267v9.793h4.026z"/><path transform="matrix(1 0 0 -1 181.2637 498.2314)" d="m0 0c0 1.871-.036 3.437-.131 4.835h3.539l.196-2.432h.102c.685 1.267 2.418 2.803 5.075 2.803 2.789 0 5.672-1.835 5.672-6.968v-9.634h-4.034v9.168c0 2.33-.852 4.099-3.043 4.099-1.609 0-2.723-1.165-3.146-2.402-.13-.365-.167-.866-.167-1.333v-9.532h-4.063z"/><path transform="matrix(1 0 0 -1 210.7017 500.1611)" d="m0 0c0 .335-.029.735-.102 1.063-.356 1.602-1.631 2.906-3.466 2.906-2.592 0-4.034-2.338-4.034-5.366 0-2.971 1.442-5.134 3.998-5.134 1.638 0 3.08 1.135 3.473 2.898.102.371.131.765.131 1.201zm4.034 14.198v-19.098c0-1.667.058-3.466.131-4.566h-3.611l-.161 2.57h-.065c-.954-1.805-2.884-2.933-5.206-2.933-3.801 0-6.815 3.298-6.815 8.293-.037 5.439 3.305 8.672 7.135 8.672 2.199 0 3.772-.94 4.493-2.133h.065v9.195z"/><path transform="matrix(1 0 0 -1 244.6689 500.459)" d="m0 0c-.131 2.897-.299 6.399-.262 9.429h-.095c-.728-2.731-1.645-5.767-2.621-8.599l-3.218-9.728h-3.11l-2.948 9.596c-.852 2.869-1.639 5.935-2.228 8.731h-.066c-.095-2.935-.226-6.495-.393-9.568l-.488-9.029h-3.772l1.471 22.463h5.315l2.884-9.028c.786-2.636 1.47-5.301 2.024-7.799h.102c.59 2.432 1.34 5.199 2.199 7.828l3.043 8.999h5.243l1.281-22.463h-3.932z"/><path transform="matrix(1 0 0 -1 256.2969 501.5293)" d="m0 0c0-3.132 1.507-5.498 3.961-5.498 2.301 0 3.903 2.301 3.903 5.563 0 2.534-1.114 5.439-3.866 5.439-2.848 0-3.998-2.803-3.998-5.504m12.029.167c0-5.963-4.136-8.628-8.199-8.628-4.515 0-7.995 3.167-7.995 8.366 0 5.329 3.444 8.599 8.257 8.599 4.755 0 7.937-3.4 7.937-8.337"/><path transform="matrix(1 0 0 -1 282.3271 500.1611)" d="m0 0c0 .335-.036.735-.094 1.063-.364 1.602-1.646 2.906-3.481 2.906-2.585 0-4.027-2.338-4.027-5.366 0-2.971 1.442-5.134 3.998-5.134 1.638 0 3.08 1.135 3.473 2.898.095.371.131.765.131 1.201zm4.027 14.198v-19.098c0-1.667.073-3.466.131-4.566h-3.597l-.167 2.57h-.066c-.947-1.805-2.884-2.933-5.213-2.933-3.802 0-6.816 3.298-6.816 8.293-.029 5.439 3.313 8.672 7.15 8.672 2.192 0 3.765-.94 4.486-2.133h.065v9.195z"/><path transform="matrix(1 0 0 -1 300.5522 499.7969)" d="m0 0c.037 1.5-.619 3.969-3.306 3.969-2.49 0-3.538-2.302-3.698-3.969zm-7.004-2.861c.094-2.935 2.358-4.201 4.907-4.201 1.871 0 3.219.269 4.427.735l.59-2.833c-1.377-.568-3.277-1.005-5.57-1.005-5.177 0-8.228 3.233-8.228 8.199 0 4.5 2.694 8.737 7.805 8.737 5.17 0 6.874-4.332 6.874-7.9 0-.771-.058-1.368-.131-1.732z"/><path transform="matrix(1 0 0 -1 307.6152 498.625)" d="m0 0c0 2.199-.029 3.765-.131 5.229h3.509l.132-3.095h.131c.786 2.294 2.65 3.466 4.354 3.466.393 0 .626-.037.946-.102v-3.866c-.32.065-.684.131-1.179.131-1.93 0-3.241-1.268-3.597-3.102-.073-.364-.131-.794-.131-1.267v-8.396h-4.034z"/><path transform="matrix(1 0 0 -1 319.2939 498.2314)" d="m0 0c0 1.871-.029 3.437-.131 4.835h3.539l.196-2.432h.095c.692 1.267 2.432 2.803 5.082 2.803 2.782 0 5.665-1.835 5.665-6.968v-9.634h-4.026v9.168c0 2.33-.853 4.099-3.051 4.099-1.602 0-2.716-1.165-3.145-2.402-.131-.365-.161-.866-.161-1.333v-9.532h-4.063z"/><path transform="matrix(1 0 0 -1 349.0312 487.1641)" d="m0 0v-8.999h9.334v8.999h4.034v-22.463h-4.034v9.896h-9.334v-9.896h-4.034v22.463z"/><path transform="matrix(1 0 0 -1 370.0225 501.5293)" d="m0 0c0-3.132 1.508-5.498 3.969-5.498 2.286 0 3.895 2.301 3.895 5.563 0 2.534-1.114 5.439-3.866 5.439-2.854 0-3.998-2.803-3.998-5.504m12.021.167c0-5.963-4.121-8.628-8.183-8.628-4.529 0-7.995 3.167-7.995 8.366 0 5.329 3.436 8.599 8.257 8.599 4.747 0 7.921-3.4 7.921-8.337"/><path transform="matrix(1 0 0 -1 385.1748 505.8623)" d="m0 0c.918-.561 2.65-1.165 4.092-1.165 1.777 0 2.563.735 2.563 1.799 0 1.099-.655 1.667-2.621 2.366-3.116 1.1-4.427 2.832-4.398 4.732 0 2.87 2.33 5.105 6.029 5.105 1.776 0 3.313-.466 4.231-.969l-.787-2.897c-.692.4-1.966.931-3.372.931-1.441 0-2.227-.698-2.227-1.703 0-1.034.75-1.529 2.781-2.264 2.884-1.071 4.224-2.564 4.26-4.966 0-2.935-2.265-5.069-6.488-5.069-1.937 0-3.669.467-4.849 1.137z"/><path transform="matrix(1 0 0 -1 403.0723 502.8262)" d="m0 0c0-.4.036-.765.131-1.136.393-1.667 1.835-2.861 3.539-2.861 2.562 0 4.062 2.162 4.062 5.359 0 2.868-1.369 5.206-3.961 5.206-1.674 0-3.21-1.238-3.604-3.036-.094-.335-.167-.699-.167-1.034zm-4.026 4.034c0 2.134-.066 3.866-.131 5.396h3.538l.197-2.498h.066c1.178 1.835 3.05 2.869 5.467 2.869 3.67 0 6.721-3.204 6.721-8.272 0-5.861-3.634-8.693-7.274-8.693-1.995 0-3.669.866-4.485 2.162h-.073v-8.395h-4.026z"/><path transform="matrix(1 0 0 -1 0 792)" d="m418.231 298.604h4.06299v-16.23h-4.06299zm4.296 4.536c0-1.231-.887-2.2-2.3-2.2-1.34 0-2.228.969-2.228 2.2 0 1.266.917 2.235 2.265 2.235 1.376 0 2.227-.969 2.263-2.235"/><path transform="matrix(1 0 0 -1 431.251 488.7588)" d="m0 0v-4.638h3.83v-3.065h-3.83v-7.165c0-1.966.523-3 2.061-3 .691 0 1.215.102 1.572.204l.065-3.138c-.59-.233-1.637-.401-2.912-.401-1.478 0-2.723.503-3.48 1.333-.845.939-1.239 2.402-1.239 4.536v7.631h-2.3v3.065h2.3v3.67z"/><path transform="matrix(1 0 0 -1 446.585 501.6973)" d="m0 0c-2.854.073-5.57-.561-5.57-3.029 0-1.602 1.012-2.33 2.294-2.33 1.601 0 2.781 1.063 3.145 2.228.102.299.131.634.131.903zm.524-7.93-.262 1.799h-.102c-.975-1.266-2.65-2.162-4.718-2.162-3.204 0-5.009 2.366-5.009 4.827 0 4.1 3.567 6.167 9.465 6.138v.263c0 1.07-.422 2.832-3.24 2.832-1.573 0-3.211-.496-4.289-1.195l-.786 2.665c1.18.736 3.24 1.435 5.767 1.435 5.111 0 6.582-3.306 6.582-6.837v-5.861c0-1.471.065-2.906.233-3.904z"/><path transform="matrix(1 0 0 -1 0 792)" d="m454.791 306.037h4.062v-23.664h-4.062z"/><path transform="matrix(1 0 0 -1 470.1758 487.1641)" d="m0 0h4.027v-19.025h9.079v-3.438h-13.106z"/><path transform="matrix(1 0 0 -1 490.6367 488.7588)" d="m0 0v-4.638h3.83v-3.065h-3.83v-7.165c0-1.966.524-3 2.061-3 .691 0 1.215.102 1.572.204l.065-3.138c-.59-.233-1.637-.401-2.912-.401-1.478 0-2.723.503-3.48 1.333-.845.939-1.239 2.402-1.239 4.536v7.631h-2.3v3.065h2.3v3.67z"/><path transform="matrix(1 0 0 -1 508.0098 500.1611)" d="m0 0c0 .335-.029.735-.103 1.063-.356 1.602-1.63 2.906-3.465 2.906-2.592 0-4.034-2.338-4.034-5.366 0-2.971 1.442-5.134 3.998-5.134 1.638 0 3.08 1.135 3.473 2.898.102.371.131.765.131 1.201zm4.033 14.198v-19.098c0-1.667.059-3.466.132-4.566h-3.612l-.16 2.57h-.066c-.953-1.805-2.883-2.933-5.206-2.933-3.801 0-6.815 3.298-6.815 8.293-.036 5.439 3.305 8.672 7.135 8.672 2.2 0 3.772-.94 4.494-2.133h.065v9.195z"/><path transform="matrix(1 0 0 -1 515.5674 507.3623)" d="m0 0c0 1.536 1.049 2.636 2.49 2.636 1.471 0 2.49-1.071 2.49-2.636 0-1.5-.99-2.628-2.49-2.628-1.478 0-2.49 1.128-2.49 2.628"/></g><path transform="matrix(1 0 0 -1 434.7324 397.4463)" fill="#0072bc" d="m0 0c0 67.191-56.438 121.669-126.046 121.669-69.616 0-126.045-54.478-126.045-121.669 0-14.198 2.534-27.814 7.15-40.484h.007l23.606 13.485c-1.901 7.543-2.905 15.451-2.905 23.576 0 53.678 43.724 97.205 97.67 97.205 53.94 0 97.678-43.527 97.678-97.205 0-6.582-.655-12.989-1.923-19.193l23.541-17.868h.11c4.623 12.67 7.157 26.286 7.157 40.484"/></g></svg>